<svg xmlns="http://www.w3.org/2000/svg" width="134.399" height="63.999" viewBox="0 0 3556 1693" shape-rendering="geometricPrecision" text-rendering="geometricPrecision" image-rendering="optimizeQuality" fill-rule="evenodd" clip-rule="evenodd"><defs><style>.fil0,.fil1{fill:#fefefe}.fil1{fill-rule:nonzero}</style></defs><g id="Слой_x0020_1"><g id="_845035488"><path class="fil0" d="M818 47l2725-1v742H1639l-101-301-196-234L930 58 397 213l96 575h-96V213L818 47zm1218 69c68 0 122 18 161 53s59 80 59 137-20 102-59 137c-39 34-93 52-161 52h-100v131l63 13v71h-245v-71l63-13V200l-63-12v-72h282zm-100 287h100c33 0 58-9 75-27s26-41 26-69c0-29-9-52-26-71s-42-28-75-28h-100v195zm901 15c0 87-25 159-75 215-50 57-115 86-195 86s-145-29-195-86c-49-56-74-128-74-215v-9c0-87 25-159 74-216s114-85 194-85c81 0 146 28 196 85s75 129 75 216v9zm-119-10c0-62-13-112-38-150-26-38-64-57-114-57s-87 19-112 57c-24 38-36 88-36 150v10c0 62 12 112 37 151 25 38 62 57 112 57s88-19 113-57c25-39 38-89 38-151v-10zm653-91h-89l-12-80c-11-11-26-21-44-27-18-7-39-11-63-11-52 0-92 19-119 57-28 37-42 86-42 147v20c0 61 14 110 42 148 27 37 66 56 117 56 23 0 45-3 64-10 20-7 35-16 45-28l12-79h89v118c-24 27-55 49-92 66-37 16-78 25-124 25-80 0-145-28-196-83s-76-126-76-213v-20c0-86 25-157 76-212 50-56 116-83 196-83 46 0 87 8 124 25 37 16 68 39 92 66v118z"/><path class="fil1" d="M969 411c0 83-67 151-151 151-83 0-151-68-151-151s68-151 151-151c84 0 151 68 151 151z"/><path class="fil1" d="M1403 285C1249 131 1045 46 827 46s-422 85-576 239S12 644 12 862c0 217 85 422 239 576s358 239 576 239 422-85 576-239 239-359 239-576c0-218-85-423-239-577zm-728 953c0-84 68-152 152-152s152 68 152 152-68 153-152 153-152-69-152-153zm162 376c203-5 366-171 366-376 0-208-168-376-376-376S450 693 450 485c0-198 154-360 348-375 1 0 25-1 29-1 416 0 753 337 753 753 0 412-332 747-743 752zm1011-580l1 1c0 18-5 32-17 43-11 11-27 16-47 16-21 0-37-6-50-19-12-14-19-30-19-51v-33c0-21 7-37 19-50s28-20 48-20c21 0 37 5 49 16s17 25 17 44h-33c0-11-3-19-8-25s-14-9-25-9c-10 0-18 4-24 12s-9 19-9 32v33c0 13 3 24 9 32 7 8 15 12 26 12 10 0 18-3 23-8 5-6 8-15 8-26h32zm137-85h-47v143h-34V949h-48v-26h129v26zm53 82v61h-34V923h67c19 0 35 5 46 15s16 23 16 39-5 29-16 39-27 15-46 15h-33zm0-26h33c9 0 17-3 21-8 5-5 8-12 8-20s-3-14-7-20c-5-5-12-8-22-8h-33v56zm256 18c0 20-7 37-20 51-13 13-30 20-51 20s-37-7-50-20c-13-14-20-31-20-51v-31c0-20 7-37 20-51 12-13 29-20 50-20s38 7 51 20c13 14 20 31 20 51v31zm-34-31c0-13-3-24-10-32-6-9-16-13-27-13s-20 4-27 13c-6 8-9 19-9 32v31c0 13 3 24 9 32 7 9 16 13 27 13 12 0 21-4 27-13 7-8 10-19 10-32v-31zm161-69h34v169h-34V979h-1l-67 113h-34V923h34v113l68-113zm181 26h-47v143h-34V949h-47v-26h128v26zm123 69h-70v48h82v26h-116V923h115v26h-81v43h70v26zm168-95v169h-34V949h-48v51c0 33-4 56-14 70-10 15-25 22-46 22h-5v-26h5c11 0 18-5 21-14 4-10 6-27 6-52v-77h115zm65 63h29c19 0 35 4 46 14 11 9 17 22 17 38s-6 29-17 39c-12 10-27 15-46 15h-63V923h34v63zm0 26v54h29c9 0 17-3 22-8 5-6 7-12 7-20s-2-14-7-19-13-7-22-7h-29zm251 80h-34v-70h-68v70h-34V923h34v73h68v-73h34v169zm122-37h-59l-12 37h-34l58-169h35l57 169h-34l-11-37zm-51-26h43l-21-66h-1l-21 66zm131 63h-37l37-73c-9-4-16-10-20-18-5-7-7-16-7-26 0-17 6-29 17-38s26-14 45-14h58v169h-33v-62h-29l-31 62zm60-143h-25c-9 0-16 3-21 7-5 5-7 12-7 20 0 9 2 16 7 21 5 6 12 8 21 8h25v-56zm-1187 333h-18v70h-34v-169h34v69h14l45-69h41l-56 79 61 90h-41l-46-70zm230 1c0 20-7 37-20 51-13 13-30 20-51 20s-37-7-50-20c-13-14-20-31-20-51v-31c0-20 7-37 20-51 12-13 29-20 50-20s38 7 51 20c13 14 20 31 20 51v31zm-34-31c0-13-3-24-10-32-6-9-16-13-27-13s-20 4-27 13c-6 8-9 19-9 32v31c0 13 3 24 9 32 7 9 16 13 27 13 12 0 21-4 27-13 7-8 10-19 10-32v-31zm104-69l43 124h1l43-124h44v169h-34v-50l4-75h-1l-45 125h-23l-45-124 3 74v50h-34v-169h44zm299 169h-34v-143h-69v143h-33v-169h136v169zm122-36h-59l-12 36h-34l58-169h34l58 169h-34l-11-36zm-51-27h42l-21-66-21 66zm248 63h-34v-70h-68v70h-34v-169h34v73h68v-73h34v169zm133-169h33v169h-33v-113h-1l-68 113h-34v-169h34v113h1l68-113zm83 169h-36l36-72c-9-5-15-11-20-19-4-7-6-16-6-26 0-17 5-29 16-38s26-14 46-14h58v169h-34v-62h-29l-31 62zm60-143h-24c-10 0-17 3-22 7-4 5-7 12-7 20 0 9 3 16 8 21 5 6 11 8 21 8h24v-56z"/></g></g></svg>